ISO-10303-21;
HEADER;
FILE_DESCRIPTION(('ViewDefinition [CoordinationView]','Georeferencing'),'2;1');
FILE_NAME('Poligono_sin_titulo_solid.ifc','2026-09-06T01:37:50',('CampoAR'),('CampoAR'),'CampoAR kml_to_solid','CampoAR','');
FILE_SCHEMA(('IFC4'));
ENDSEC;
DATA;
#1=IFCPERSON($,'CampoAR',$,$,$,$,$,$);
#2=IFCORGANIZATION($,'CampoAR','Georeferenced KML extrusion',$,$);
#3=IFCPERSONANDORGANIZATION(#1,#2,$);
#4=IFCAPPLICATION(#2,'1.0','CampoAR','CampoAR');
#5=IFCOWNERHISTORY(#3,#4,$,.ADDED.,$,$,$,0);
#6=IFCSIUNIT(*,.LENGTHUNIT.,$,.METRE.);
#7=IFCSIUNIT(*,.AREAUNIT.,$,.SQUARE_METRE.);
#8=IFCSIUNIT(*,.VOLUMEUNIT.,$,.CUBIC_METRE.);
#9=IFCUNITASSIGNMENT((#6,#7,#8));
#10=IFCCARTESIANPOINT((0.,0.,0.));
#11=IFCDIRECTION((0.,0.,1.));
#12=IFCDIRECTION((1.,0.,0.));
#13=IFCAXIS2PLACEMENT3D(#10,#11,#12);
#14=IFCDIRECTION((0.,1.));
#15=IFCGEOMETRICREPRESENTATIONCONTEXT($,'Model',3,1.E-05,#13,#14);
#16=IFCGEOMETRICREPRESENTATIONSUBCONTEXT('Body','Model',*,*,*,*,#15,$,.MODEL_VIEW.,$);
#17=IFCPROJECT('094A8485E1754954BDEA4D7D37C10834',#5,'Poligono_sin_titulo','Georeferenced solid from KML lon=-71.52842835 lat=-16.42051897',$,$,$,(#15),#9);
#18=IFCLOCALPLACEMENT($,#13);
#19=IFCSITE('920A14A2E08B47DCA2F475E7ABEF5A98',#5,'Site Arequipa','WGS84 -16.42051897,-71.52842835 / EPSG:32719',$,#18,$,$,.ELEMENT.,(-16,25,13,868286),(-71,31,42,342043),0.,$,$);
#20=IFCBUILDING('CD42C034484B4B188185A76BAABEFAC6',#5,'Building',$,$,#18,$,$,.ELEMENT.,$,$,$);
#21=IFCLOCALPLACEMENT(#18,#13);
#22=IFCBUILDINGSTOREY('FA8F25C62D904ED3B46DF110CC3085C1',#5,'Level 0',$,$,#21,$,$,.ELEMENT.,0.);
#23=IFCRELAGGREGATES('DF2F4DB411DF4FA2BA4A06934FE32B1D',#5,$,$,#17,(#19));
#24=IFCRELAGGREGATES('D9DD0FA9080D40E791C4A5932B860A44',#5,$,$,#19,(#20));
#25=IFCRELAGGREGATES('96FB474C5BFA427C944F9A694A688EA9',#5,$,$,#20,(#22));
#26=IFCPROJECTEDCRS('EPSG:32719','WGS 84 / UTM zone 19S',$,'EPSG','32719',$,#6);
#27=IFCMAPCONVERSION(#15,#26,229978.387,8182863.235,0.,1.,0.,1.);
#28=IFCCARTESIANPOINT((-2.077331,-5.140792));
#29=IFCCARTESIANPOINT((4.843468,-3.020112));
#30=IFCCARTESIANPOINT((2.165949,4.939924));
#31=IFCCARTESIANPOINT((-4.932086,3.220979));
#32=IFCCARTESIANPOINT((-2.077331,-5.140792));
#33=IFCPOLYLINE((#28,#29,#30,#31,#32));
#34=IFCARBITRARYCLOSEDPROFILEDEF(.AREA.,'Footprint',#33);
#35=IFCDIRECTION((0.,0.,1.));
#36=IFCEXTRUDEDAREASOLID(#34,#13,#35,3.000);
#37=IFCSHAPEREPRESENTATION(#16,'Body','SweptSolid',(#36));
#38=IFCPRODUCTDEFINITIONSHAPE($,$,(#37));
#39=IFCLOCALPLACEMENT(#21,#13);
#40=IFCBUILDINGELEMENTPROXY('0CCB681CF223435D8B1618F80DE46F16',#5,'Poligono_sin_titulo','Extruded 3.0m georef EPSG:32719 E=229978.387 N=8182863.235 WGS84=-16.42051897,-71.52842835',$,#39,#38,$,.USERDEFINED.);
#41=IFCRELCONTAINEDINSPATIALSTRUCTURE('ABD2B02706E24A8886EA90616C982941',#5,$,$,(#40),#22);
ENDSEC;
END-ISO-10303-21;
